<svg id="Capa_1" enable-background="new 0 0 512.249 512.249" height="512" viewBox="0 0 512.249 512.249" width="512" xmlns="http://www.w3.org/2000/svg"><g><path d="m372.941 480.957h-233.633c-8.013 0-15.479-4.311-19.486-11.25l-116.817-202.333c-4.007-6.939-4.007-15.561 0-22.5l116.817-202.333c4.007-6.939 11.474-11.25 19.486-11.25h233.633c8.013 0 15.479 4.311 19.486 11.25l49.813 86.28c2.071 3.587.842 8.174-2.745 10.245-3.584 2.072-8.173.843-10.245-2.745l-49.813-86.28c-1.336-2.313-3.825-3.75-6.496-3.75h-233.633c-2.671 0-5.16 1.437-6.496 3.75l-116.817 202.333c-1.336 2.313-1.336 5.187 0 7.5l116.816 202.333c1.336 2.313 3.825 3.75 6.496 3.75h233.633c2.671 0 5.16-1.437 6.496-3.75l116.816-202.333c1.336-2.313 1.336-5.187 0-7.5l-51.559-89.302c-2.071-3.587-.842-8.174 2.745-10.245 3.585-2.072 8.174-.843 10.245 2.745l51.559 89.302c4.007 6.939 4.007 15.561 0 22.5l-116.815 202.333c-4.007 6.94-11.474 11.25-19.486 11.25zm-27.671-62.346h-66.004c-17.152 0-33.135-9.228-41.711-24.082l-4.333-7.505c-2.071-3.587-.842-8.174 2.745-10.245 3.586-2.071 8.175-.842 10.245 2.745l4.333 7.505c5.905 10.228 16.91 16.582 28.721 16.582h52.668l-26.187-45.955c-5.911-10.203-16.901-16.539-28.695-16.539h-42.526c-3.836 0-7.614-.461-11.263-1.344l8.208 14.217c2.071 3.587.842 8.174-2.745 10.245-3.585 2.071-8.175.842-10.245-2.745l-103.409-179.109c-1.34-2.32-1.34-5.18 0-7.5s3.815-3.75 6.495-3.75h37.241v-69.993c0-2.68 1.43-5.155 3.75-6.495s5.18-1.34 7.5 0l60.615 34.997 18.62-32.251c1.34-2.32 3.815-3.75 6.495-3.75s5.155 1.429 6.495 3.75l33.003 57.161c8.576 14.854 8.576 33.31 0 48.164l-21.264 36.83c-5.901 10.222-5.905 22.92-.01 33.146l.01.018c.003.005.007.011.01.017l27.272 47.239c1.061-3.601 2.55-7.104 4.468-10.426l21.264-36.83c5.901-10.223 5.905-22.922.01-33.147l-.01-.017c-.001-.002-.002-.004-.004-.006l-17.792-30.818c-2.071-3.587-.842-8.174 2.745-10.245 3.586-2.072 8.175-.843 10.245 2.745l62.537 108.318c8.576 14.854 8.576 33.309 0 48.164l-33.003 57.161c-1.339 2.318-3.815 3.748-6.494 3.748zm-26.465-68.338 26.291 46.139 26.682-46.212c5.905-10.228 5.905-22.936 0-33.164l-27.283-47.256c-1.061 3.602-2.55 7.105-4.468 10.427l-21.264 36.83c-5.905 10.228-5.905 22.936 0 33.164.015.023.028.048.042.072zm-140.283-87.993 27.283 47.255c5.905 10.228 16.91 16.582 28.721 16.582h42.526c3.836 0 7.614.462 11.263 1.344l-27.282-47.255c-.003-.005-.007-.011-.01-.017l-.002-.003c-5.907-10.217-16.905-16.563-28.709-16.563h-42.527c-3.837.001-7.614-.46-11.263-1.343zm-17.433-30.195c5.911 10.203 16.901 16.539 28.695 16.539h42.527c3.836 0 7.613.461 11.263 1.344l-27.283-47.255c-5.905-10.228-16.91-16.582-28.721-16.582h-53.014l26.495 45.89c.004.007.008.014.012.021zm68.192-36.872 27.283 47.256c1.061-3.601 2.55-7.104 4.468-10.426l21.264-36.83c5.905-10.228 5.905-22.936 0-33.164l-26.508-45.911-15.856 27.464c-.006.011-.013.022-.019.033-.007.011-.013.022-.02.034l-10.612 18.381c-5.905 10.227-5.905 22.935 0 33.163zm59.51 3.75h.01zm-114.983-27.832h13.763c7.894 0 15.539 1.954 22.329 5.512.314-7.659 2.445-15.258 6.392-22.094l6.882-11.919-49.365-28.501v57.002z"/></g></svg>