<svg id="Layer_1" enable-background="new 0 0 511.907 511.907" height="512" viewBox="0 0 511.907 511.907" width="512" xmlns="http://www.w3.org/2000/svg"><g><path d="m469.126 42.78c-57.042-57.04-149.855-57.04-206.896 0-56.043 56.043-83.541 108.356-105.635 150.391-10.758 20.468-20.049 38.144-30.818 53.074-12.786 17.728-10.919 41.742 4.44 57.101l5.355 5.355-62.676 62.675c-19.235-8.195-42.171-4.249-57.577 11.156-20.425 20.426-20.425 53.66 0 74.087 7.16 7.159 16.149 12.007 25.843 14.124 2.117 9.694 6.966 18.685 14.125 25.844 10.213 10.213 23.628 15.319 37.043 15.319s26.831-5.106 37.043-15.319c15.405-15.406 19.352-38.341 11.156-57.577l62.675-62.675 5.355 5.355c8.538 8.538 19.749 12.906 31.07 12.906 9.043 0 18.158-2.789 26.03-8.467 14.931-10.769 32.607-20.061 53.074-30.818 42.035-22.095 94.348-49.593 150.391-105.635 57.043-57.04 57.043-149.854.002-206.896zm-287.135 312.342-70.808 70.808c-5.362 5.362-5.879 13.883-1.204 19.854 6.952 8.88 6.17 21.602-1.819 29.591-8.729 8.729-22.932 8.729-31.66 0-4.589-4.589-6.954-10.948-6.488-17.446.312-4.34-1.278-8.602-4.354-11.679-2.823-2.823-6.643-4.394-10.606-4.394-.356 0-.714.013-1.073.038-6.508.465-12.858-1.899-17.447-6.488-8.729-8.729-8.729-22.932 0-31.66 7.989-7.989 20.709-8.771 29.59-1.818 5.971 4.677 14.492 4.158 19.854-1.204l70.809-70.809 5.094 5.094zm265.922-126.658c-52.821 52.82-100.803 78.041-143.136 100.293-20.58 10.816-40.018 21.034-56.665 33.041-5.73 4.133-13.441 3.576-18.338-1.32l-78.345-78.345c-4.897-4.897-5.453-12.61-1.321-18.339 12.007-16.647 22.225-36.085 33.042-56.665 22.251-42.333 47.472-90.314 100.293-143.136 22.672-22.672 52.454-34.008 82.235-34.008 29.782 0 59.563 11.336 82.235 34.008 45.344 45.345 45.344 119.126 0 164.471z"/></g></svg>